<svg width="93" height="34" viewBox="0 0 93 34" fill="none" xmlns="http://www.w3.org/2000/svg">
<path d="M8.81063 16.49H3.36063L2.26063 20H0.550625L5.03063 6.23H7.25063L11.7306 20H9.91063L8.81063 16.49ZM3.81063 15.05H8.36063L6.10063 7.69L3.81063 15.05ZM15.2228 10.84C15.6095 10.3333 16.0528 9.94333 16.5528 9.67C17.0595 9.39 17.6161 9.25 18.2228 9.25C19.1628 9.25 19.9228 9.47667 20.5028 9.93C21.0828 10.3833 21.5061 11.0233 21.7728 11.85C22.0395 12.67 22.1728 13.63 22.1728 14.73C22.1728 15.79 22.0128 16.7367 21.6928 17.57C21.3728 18.3967 20.9028 19.0467 20.2828 19.52C19.6695 19.9933 18.9095 20.23 18.0028 20.23C16.7828 20.23 15.8261 19.79 15.1328 18.91L15.0128 20H13.5428V5.23L15.2228 5.02V10.84ZM17.6028 18.87C18.4828 18.87 19.1595 18.53 19.6328 17.85C20.1061 17.17 20.3428 16.1267 20.3428 14.72C20.3428 13.8 20.2495 13.0367 20.0628 12.43C19.8761 11.8167 19.5961 11.36 19.2228 11.06C18.8561 10.7533 18.4028 10.6 17.8628 10.6C17.2761 10.6 16.7595 10.7767 16.3128 11.13C15.8728 11.4767 15.5095 11.8633 15.2228 12.29V17.51C15.4961 17.9233 15.8395 18.2533 16.2528 18.5C16.6728 18.7467 17.1228 18.87 17.6028 18.87ZM28.945 9.25C29.9383 9.25 30.7683 9.47667 31.435 9.93C32.1083 10.3767 32.6117 11.01 32.945 11.83C33.285 12.65 33.455 13.6167 33.455 14.73C33.455 15.8033 33.2817 16.7533 32.935 17.58C32.5883 18.4067 32.0783 19.0567 31.405 19.53C30.7383 19.9967 29.9117 20.23 28.925 20.23C27.9383 20.23 27.1083 20.0033 26.435 19.55C25.7617 19.0967 25.2517 18.46 24.905 17.64C24.565 16.8133 24.395 15.85 24.395 14.75C24.395 13.6633 24.5683 12.7067 24.915 11.88C25.2617 11.0533 25.7717 10.41 26.445 9.95C27.125 9.48333 27.9583 9.25 28.945 9.25ZM28.945 10.62C28.0383 10.62 27.3517 10.9567 26.885 11.63C26.425 12.2967 26.195 13.3367 26.195 14.75C26.195 16.1367 26.4217 17.1667 26.875 17.84C27.335 18.5133 28.0183 18.85 28.925 18.85C29.8317 18.85 30.5117 18.5133 30.965 17.84C31.425 17.1667 31.655 16.13 31.655 14.73C31.655 13.33 31.4283 12.2967 30.975 11.63C30.5217 10.9567 29.845 10.62 28.945 10.62ZM38.0072 9.47V16.93C38.0072 17.6233 38.1505 18.1233 38.4372 18.43C38.7239 18.7367 39.1705 18.89 39.7772 18.89C40.3572 18.89 40.9039 18.7267 41.4172 18.4C41.9372 18.0667 42.3405 17.6733 42.6272 17.22V9.47H44.3072V20H42.8772L42.7372 18.58C42.3239 19.1133 41.8139 19.5233 41.2072 19.81C40.6005 20.09 39.9872 20.23 39.3672 20.23C38.3472 20.23 37.5839 19.96 37.0772 19.42C36.5772 18.8733 36.3272 18.11 36.3272 17.13V9.47H38.0072ZM56.0794 19.47C55.7194 19.71 55.2827 19.8967 54.7694 20.03C54.256 20.1633 53.7527 20.23 53.2594 20.23C52.126 20.23 51.2527 19.9333 50.6394 19.34C50.026 18.7467 49.7194 17.9833 49.7194 17.05V10.77H47.2994V9.47H49.7194V7.08L51.3994 6.88V9.47H55.0394L54.8394 10.77H51.3994V17.03C51.3994 17.6167 51.5527 18.0633 51.8594 18.37C52.1727 18.6767 52.6894 18.83 53.4094 18.83C53.8027 18.83 54.166 18.7833 54.4994 18.69C54.8327 18.5967 55.1427 18.4767 55.4294 18.33L56.0794 19.47ZM77.4438 9.25C77.7838 9.25 78.1071 9.32333 78.4138 9.47C78.7271 9.61667 78.9838 9.9 79.1838 10.32C79.3838 10.74 79.4838 11.3533 79.4838 12.16V20H77.9238V12.43C77.9238 11.77 77.8838 11.2933 77.8038 11C77.7238 10.7067 77.4938 10.56 77.1138 10.56C76.8004 10.56 76.4871 10.66 76.1738 10.86C75.8671 11.0533 75.5671 11.3733 75.2738 11.82V20H73.7038V12.43C73.7038 11.77 73.6638 11.2933 73.5838 11C73.5038 10.7067 73.2738 10.56 72.8938 10.56C72.5671 10.56 72.2504 10.66 71.9438 10.86C71.6438 11.0533 71.3471 11.3733 71.0538 11.82V20H69.5038V9.47H70.8238L70.9238 10.69C71.2104 10.2833 71.5304 9.94333 71.8838 9.67C72.2438 9.39 72.6871 9.25 73.2138 9.25C73.6138 9.25 73.9904 9.34667 74.3438 9.54C74.6971 9.72667 74.9571 10.0933 75.1238 10.64C75.4104 10.2267 75.7338 9.89333 76.0938 9.64C76.4538 9.38 76.9038 9.25 77.4438 9.25ZM83.2159 15.33C83.2493 16.1433 83.4059 16.81 83.6859 17.33C83.9659 17.8433 84.3359 18.2233 84.7959 18.47C85.2559 18.71 85.7559 18.83 86.2959 18.83C86.8359 18.83 87.3226 18.75 87.7559 18.59C88.1959 18.43 88.6459 18.1933 89.1059 17.88L89.8959 18.99C89.4026 19.3767 88.8393 19.68 88.2059 19.9C87.5793 20.12 86.9359 20.23 86.2759 20.23C85.2559 20.23 84.3859 20 83.6659 19.54C82.9459 19.08 82.3959 18.44 82.0159 17.62C81.6426 16.7933 81.4559 15.8367 81.4559 14.75C81.4559 13.6833 81.6459 12.7367 82.0259 11.91C82.4059 11.0833 82.9393 10.4333 83.6259 9.96C84.3126 9.48667 85.1226 9.25 86.0559 9.25C86.9426 9.25 87.7059 9.46 88.3459 9.88C88.9859 10.2933 89.4759 10.8867 89.8159 11.66C90.1626 12.4267 90.3359 13.3433 90.3359 14.41C90.3359 14.59 90.3326 14.76 90.3259 14.92C90.3193 15.0733 90.3093 15.21 90.2959 15.33H83.2159ZM86.0759 10.63C85.2959 10.63 84.6426 10.9067 84.1159 11.46C83.5959 12.0133 83.2993 12.87 83.2259 14.03H88.7159C88.6959 12.9033 88.4493 12.0567 87.9759 11.49C87.5026 10.9167 86.8693 10.63 86.0759 10.63Z" fill="#3DCFB6"/>
<mask id="mask0_3296_4115" style="mask-type:alpha" maskUnits="userSpaceOnUse" x="42" y="26" width="9" height="8">
<rect x="42.1406" y="26" width="8" height="8" fill="#D9D9D9"/>
</mask>
<g mask="url(#mask0_3296_4115)">
<path d="M46.132 33.1969C45.6916 33.1969 45.2769 33.1135 44.888 32.9469C44.4991 32.7802 44.1589 32.551 43.8672 32.2594C43.5755 31.9677 43.3464 31.6275 43.1797 31.2389C43.013 30.8502 42.9297 30.4349 42.9297 29.993C42.9297 29.5512 43.013 29.1372 43.1797 28.751C43.3464 28.3649 43.5755 28.026 43.8672 27.7344C44.1589 27.4427 44.499 27.2135 44.8877 27.0469C45.2764 26.8802 45.6916 26.7969 46.1335 26.7969C46.5754 26.7969 46.9894 26.8802 47.3755 27.0469C47.7616 27.2135 48.1005 27.4427 48.3922 27.7344C48.6839 28.026 48.913 28.3655 49.0797 28.7529C49.2464 29.1403 49.3297 29.5542 49.3297 29.9945C49.3297 30.435 49.2464 30.8497 49.0797 31.2385C48.913 31.6274 48.6839 31.9677 48.3922 32.2594C48.1005 32.551 47.761 32.7802 47.3737 32.9469C46.9863 33.1135 46.5724 33.1969 46.132 33.1969ZM46.1297 32.5969C46.8519 32.5969 47.4658 32.3441 47.9714 31.8385C48.4769 31.333 48.7297 30.7191 48.7297 29.9969C48.7297 29.2747 48.4769 28.6608 47.9714 28.1552C47.4658 27.6497 46.8519 27.3969 46.1297 27.3969C45.4075 27.3969 44.7936 27.6497 44.288 28.1552C43.7825 28.6608 43.5297 29.2747 43.5297 29.9969C43.5297 30.7191 43.7825 31.333 44.288 31.8385C44.7936 32.3441 45.4075 32.5969 46.1297 32.5969ZM46.1297 32.5969C45.4075 32.5969 44.7936 32.3441 44.288 31.8385C43.7825 31.333 43.5297 30.7191 43.5297 29.9969C43.5297 29.2747 43.7825 28.6608 44.288 28.1552C44.7936 27.6497 45.4075 27.3969 46.1297 27.3969C46.8519 27.3969 47.4658 27.6497 47.9714 28.1552C48.4769 28.6608 48.7297 29.2747 48.7297 29.9969C48.7297 30.7191 48.4769 31.333 47.9714 31.8385C47.4658 32.3441 46.8519 32.5969 46.1297 32.5969Z" fill="#6AD7BF"/>
</g>
</svg>
